{"accessors":[{"bufferView":0,"componentType":5123,"count":780,"max":[305],"min":[0],"type":"SCALAR"},{"bufferView":1,"componentType":5126,"count":306,"max":[9.975000381469727,4.299920082092285,7.007999897003174],"min":[-9.975000381469727,0.0,-7.007999897003174],"type":"VEC3"},{"bufferView":2,"componentType":5126,"count":306,"max":[1.0,1.0,1.0],"min":[-1.0,-1.0,-1.0],"type":"VEC3"},{"bufferView":3,"componentType":5126,"count":306,"max":[0.9999909996986389,0.9999972581863403],"min":[2.2828600776847452e-05,2.9802322387695312e-06],"type":"VEC2"},{"bufferView":4,"componentType":5123,"count":3180,"max":[1783],"min":[0],"type":"SCALAR"},{"bufferView":5,"componentType":5126,"count":1784,"max":[10.055000305175781,4.379909992218018,7.007999897003174],"min":[-10.055000305175781,0.0,-7.007999897003174],"type":"VEC3"},{"bufferView":6,"componentType":5126,"count":1784,"max":[1.0,1.0,1.0],"min":[-1.0,-1.0,-1.0],"type":"VEC3"},{"bufferView":7,"componentType":5126,"count":1784,"max":[3678.239990234375,1.0],"min":[0.0,0.0],"type":"VEC2"},{"bufferView":8,"componentType":5123,"count":2124,"max":[1576],"min":[0],"type":"SCALAR"},{"bufferView":9,"componentType":5126,"count":1577,"max":[10.055000305175781,4.379909992218018,7.007999897003174],"min":[-10.055000305175781,0.0,-7.007999897003174],"type":"VEC3"},{"bufferView":10,"componentType":5126,"count":1577,"max":[1.0,1.0,1.0],"min":[-1.0,-1.0,-1.0],"type":"VEC3"},{"bufferView":11,"componentType":5126,"count":1577,"max":[0.9999769926071167,0.9999972581863403],"min":[9.356949703942519e-06,2.9802322387695312e-06],"type":"VEC2"}],"asset":{"generator":"Soft8Soft Verge3D for 3ds Max plug-in","version":"2.0"},"bufferViews":[{"buffer":0,"byteLength":1560,"byteOffset":0,"target":34963},{"buffer":0,"byteLength":3672,"byteOffset":1560,"target":34962},{"buffer":0,"byteLength":3672,"byteOffset":5232,"target":34962},{"buffer":0,"byteLength":2448,"byteOffset":8904,"target":34962},{"buffer":0,"byteLength":6360,"byteOffset":11352,"target":34963},{"buffer":0,"byteLength":21408,"byteOffset":17712,"target":34962},{"buffer":0,"byteLength":21408,"byteOffset":39120,"target":34962},{"buffer":0,"byteLength":14272,"byteOffset":60528,"target":34962},{"buffer":0,"byteLength":4248,"byteOffset":74800,"target":34963},{"buffer":0,"byteLength":18924,"byteOffset":79048,"target":34962},{"buffer":0,"byteLength":18924,"byteOffset":97972,"target":34962},{"buffer":0,"byteLength":12616,"byteOffset":116896,"target":34962}],"buffers":[{"byteLength":129512,"uri":"Corobka.bin"}],"cameras":[{"extensions":{"S8S_v3d_camera_data":{"controls":"ORBIT","enablePan":true,"moveSpeed":1,"orbitMaxDistance":10000,"orbitMaxPolarAngle":3.141592653589793,"orbitMinDistance":0,"orbitMinPolarAngle":0,"orbitTarget":[0,0,0],"rotateSpeed":1,"viewportFitInitialAspect":1.3333333730697632,"viewportFitType":"VERTICAL"}},"name":"__DEFAULT__","perspective":{"aspectRatio":1.3333333730697632,"yfov":0.6024156988215424,"zfar":4000.0,"znear":1.0},"type":"perspective"}],"extensions":{"S8S_v3d_data":{"lights":[{"color":[1,1,1],"intensity":1,"name":"__DEFAULT__","profile":"max","type":"point"},{"color":[0.0,0.0,0.0],"intensity":1,"name":"__AMBIENT__","profile":"max","type":"ambient"}]}},"extensionsUsed":["S8S_v3d_texture_data","S8S_v3d_material_data","S8S_v3d_camera_data","S8S_v3d_data","S8S_v3d_node_data","S8S_v3d_scene_data"],"images":[{"uri":"Front1.png"},{"uri":"Back.png"},{"uri":"Side.png"},{"uri":"Environment.png"}],"materials":[{"doubleSided":false,"emissiveFactor":[0,0,0],"extensions":{"S8S_v3d_material_data":{"nodeGraph":{"edges":[{"fromNode":1,"fromOutput":0,"toInput":0,"toNode":0},{"fromNode":1,"fromOutput":1,"toInput":1,"toNode":0},{"fromNode":2,"fromOutput":0,"toInput":1,"toNode":1}],"nodes":[{"inputs":[[1,1,1,1]],"is_active_output":true,"name":"MaxOutput","outputs":[],"type":"OUTPUT_MAX"},{"IOR":1.5,"inputFactors":[0,1.0,0,0,0,0,0,0,0,0,0,0],"inputs":[[0.800000011920929,0.800000011920929,0.800000011920929,1.0],[0.800000011920929,0.800000011920929,0.800000011920929,1.0],[0.0,0.0,0.0,1.0],0.4321928024291992,1.0,[0.0,0.0,0.0,1.0],1.0,[0,0,0,0],[0,0,0],[0,0,0,0],[0,0,0,0],0],"is_active_output":false,"name":"m_01","outputs":[[0,0,0,0]],"selfIllumColorOn":false,"type":"MATERIAL_MAX"},{"alphaAsMono":false,"alphaAsRGB":false,"alphaSource":"NONE","axis":"XY","clampToEdgeNoExtend":[false,false],"inputs":[-0.0,-0.0,1.0,1.0,0.0],"is_active_output":false,"mapping":"EXPLICIT_MAP_CHANNEL","name":"texture0","outputs":[[0,0,0,0]],"texture":0,"type":"BITMAP_MAX","uvIndex":0}]},"profile":"max"}},"name":"m_01"},{"doubleSided":false,"emissiveFactor":[0,0,0],"extensions":{"S8S_v3d_material_data":{"nodeGraph":{"edges":[{"fromNode":1,"fromOutput":0,"toInput":0,"toNode":0},{"fromNode":1,"fromOutput":1,"toInput":1,"toNode":0},{"fromNode":2,"fromOutput":0,"toInput":1,"toNode":1}],"nodes":[{"inputs":[[1,1,1,1]],"is_active_output":true,"name":"MaxOutput","outputs":[],"type":"OUTPUT_MAX"},{"IOR":1.5,"inputFactors":[0,1.0,0,0,0,0,0,0,0,0,0,0],"inputs":[[0.800000011920929,0.800000011920929,0.800000011920929,1.0],[0.800000011920929,0.800000011920929,0.800000011920929,1.0],[0.0,0.0,0.0,1.0],0.4321928024291992,1.0,[0.0,0.0,0.0,1.0],1.0,[0,0,0,0],[0,0,0],[0,0,0,0],[0,0,0,0],0],"is_active_output":false,"name":"Back","outputs":[[0,0,0,0]],"selfIllumColorOn":false,"type":"MATERIAL_MAX"},{"alphaAsMono":false,"alphaAsRGB":false,"alphaSource":"NONE","axis":"XY","clampToEdgeNoExtend":[false,false],"inputs":[-0.0,-0.0,1.0,1.0,0.0],"is_active_output":false,"mapping":"EXPLICIT_MAP_CHANNEL","name":"texture2","outputs":[[0,0,0,0]],"texture":1,"type":"BITMAP_MAX","uvIndex":0}]},"profile":"max"}},"name":"Back"},{"doubleSided":false,"emissiveFactor":[0,0,0],"extensions":{"S8S_v3d_material_data":{"nodeGraph":{"edges":[{"fromNode":1,"fromOutput":0,"toInput":0,"toNode":0},{"fromNode":1,"fromOutput":1,"toInput":1,"toNode":0},{"fromNode":2,"fromOutput":0,"toInput":1,"toNode":1}],"nodes":[{"inputs":[[1,1,1,1]],"is_active_output":true,"name":"MaxOutput","outputs":[],"type":"OUTPUT_MAX"},{"IOR":1.5,"inputFactors":[0,1.0,0,0,0,0,0,0,0,0,0,0],"inputs":[[0.800000011920929,0.800000011920929,0.800000011920929,1.0],[0.800000011920929,0.800000011920929,0.800000011920929,1.0],[0.0,0.0,0.0,1.0],0.4321928024291992,1.0,[0.0,0.0,0.0,1.0],1.0,[0,0,0,0],[0,0,0],[0,0,0,0],[0,0,0,0],0],"is_active_output":false,"name":"Side","outputs":[[0,0,0,0]],"selfIllumColorOn":false,"type":"MATERIAL_MAX"},{"alphaAsMono":false,"alphaAsRGB":false,"alphaSource":"NONE","axis":"XY","clampToEdgeNoExtend":[false,false],"inputs":[-0.0,2.049999952316284,0.20000000298023224,1.0,0.0],"is_active_output":false,"mapping":"EXPLICIT_MAP_CHANNEL","name":"texture4","outputs":[[0,0,0,0]],"texture":2,"type":"BITMAP_MAX","uvIndex":0}]},"profile":"max"}},"name":"Side"},{"extensions":{"S8S_v3d_material_data":{"nodeGraph":{"edges":[{"fromNode":1,"fromOutput":0,"toInput":0,"toNode":0},{"fromNode":1,"fromOutput":1,"toInput":1,"toNode":0}],"nodes":[{"inputs":[[1,1,1,1]],"is_active_output":true,"name":"MaxOutput","outputs":[],"type":"OUTPUT_MAX"},{"alphaAsMono":false,"alphaAsRGB":false,"alphaSource":"FILE","axis":"XY","clampToEdgeNoExtend":[false,false],"inputs":[0.0,0.0,1.0,1.0,0.0],"is_active_output":false,"mapping":"SPHERICAL_ENVIRONMENT","name":"Map #0","outputs":[[0,0,0,0]],"texture":3,"type":"BITMAP_ENV_MAX","uvIndex":0}]},"profile":"max"}},"name":"Verge3D_Environment"}],"meshes":[{"name":"back","primitives":[{"attributes":{"NORMAL":2,"POSITION":1,"TEXCOORD_0":3},"indices":0,"material":1,"mode":4}]},{"name":"side","primitives":[{"attributes":{"NORMAL":6,"POSITION":5,"TEXCOORD_0":7},"indices":4,"material":2,"mode":4}]},{"name":"corobka","primitives":[{"attributes":{"NORMAL":10,"POSITION":9,"TEXCOORD_0":11},"indices":8,"material":0,"mode":4}]}],"nodes":[{"children":[1,2],"extensions":{"S8S_v3d_node_data":{"hidden":false}},"extras":{"customProps":{"MapChannel:1":""}},"name":"Origami","translation":[-0.2383880615234375,0.0,2.00933837890625]},{"extensions":{"S8S_v3d_node_data":{"frustumCulling":true,"hidden":false,"renderOrder":0,"useCastShadows":true,"useShadows":true}},"extras":{"customProps":{"MapChannel:1":""}},"mesh":0,"name":"back"},{"extensions":{"S8S_v3d_node_data":{"frustumCulling":true,"hidden":false,"renderOrder":0,"useCastShadows":true,"useShadows":true}},"extras":{"customProps":{"MapChannel:1":""}},"mesh":1,"name":"side"},{"extensions":{"S8S_v3d_node_data":{"frustumCulling":true,"hidden":false,"renderOrder":0,"useCastShadows":true,"useShadows":true}},"extras":{"customProps":{"MapChannel:1":""}},"mesh":2,"name":"corobka","translation":[-0.2383880615234375,0.0,2.00933837890625]},{"camera":0,"children":[5],"name":"__DEFAULT_CAMERA__","rotation":[-0.15087375044822693,-0.4886663556098938,-0.08623164147138596,0.8549891710281372],"scale":[1.0,1.0000001192092896,1.0000001192092896],"translation":[-27.521404266357422,13.68609619140625,16.10372543334961]},{"extensions":{"S8S_v3d_node_data":{"light":0}},"name":"__DEFAULT_LIGHT__","rotation":[3.774895063202166e-08,0.0,0.0,1.0],"scale":[1.0,1.0,1.0],"translation":[50.275001525878906,75.4124984741211,100.55000305175781]}],"samplers":[{}],"scene":0,"scenes":[{"extensions":{"S8S_v3d_scene_data":{"aaMethod":"AUTO","light":1,"postprocessing":[],"shadowMap":{"renderReverseSided":false,"renderSingleSided":true,"type":"PCFPOISSON"},"worldMaterial":3}},"extras":{"animFrameRate":30,"coordSystem":"Z_UP_RIGHT"},"name":"Scene","nodes":[0,3,4]}],"textures":[{"extensions":{"S8S_v3d_texture_data":{"anisotropy":1,"colorSpace":"srgb","isCubeTexture":false}},"name":"texture0","sampler":0,"source":0},{"extensions":{"S8S_v3d_texture_data":{"anisotropy":1,"colorSpace":"srgb","isCubeTexture":false}},"name":"texture2","sampler":0,"source":1},{"extensions":{"S8S_v3d_texture_data":{"anisotropy":1,"colorSpace":"srgb","isCubeTexture":false,"uvTransform":[0.20000000298023224,-0.0,0,0.0,1.0,0,0.3999999985098839,-2.049999952316284,1]}},"name":"texture4","sampler":0,"source":2},{"extensions":{"S8S_v3d_texture_data":{"anisotropy":1,"colorSpace":"linear","isCubeTexture":false}},"name":"Map #0","sampler":0,"source":3}]}
